# xmcd CD database file
#
# Track frame offsets:
#	150
#	15920
#	27399
#	47393
#	68422
#	80888
#	98820
#	114097
#	131890
#	151514
#	167415
#	180111
#	198527
#	210737
#
# Disc length: 3020 seconds
#
# Revision: 0
# Processed by: cddbd v1.5.2PL0 Copyright (c) Steve Scherf et al.
# Submitted via: CDex 1.83
#
DISCID=9f0bca0e
DTITLE=GRUV'N BRASS - Brassmobile
DYEAR=2013
DGENRE=Jazz
TTITLE0=Sherbrousse
TTITLE1=Blues de la vallee
TTITLE2=Gruv'on 4 Hands
TTITLE3=Delivrance au reveil
TTITLE4=A l'est de Greenwich
TTITLE5=T-bone pour brassband
TTITLE6=Avec si peu de watt
TTITLE7=Diurne
TTITLE8=Somethin' Funky
TTITLE9=Gresiliance
TTITLE10=La ville du moteur
TTITLE11=Dromanaidre
TTITLE12=Like Jimi
TTITLE13=Overtime
EXTD=YEAR: 2013
EXTT0=
EXTT1=
EXTT2=
EXTT3=
EXTT4=
EXTT5=
EXTT6=
EXTT7=
EXTT8=
EXTT9=
EXTT10=
EXTT11=
EXTT12=
EXTT13=
PLAYORDER=
